# xmcd CD database file
#
# Track frame offsets:
#	150
#	23064
#	41132
#	60802
#	76610
#	92719
#	115217
#	131953
#	151529
#	187513
#	203601
#	223712
#	247014
#
# Disc length: 3508 seconds
#
# Revision: 0
# Processed by: cddbd v1.5.2PL0 Copyright (c) Steve Scherf et al.
# Submitted via: CDex 1.70beta3
#
DISCID=9a0db20d
DTITLE=CHRISTIAN PROMMER'S DRUMLESSON - Jazz Thing: Plays The Dining Rooms
DYEAR=2009
DGENRE=Jazz
TTITLE0=hear us now
TTITLE1=dreamy smiles
TTITLE2=m. dupont
TTITLE3=thin ice
TTITLE4=prigionieri del deserto
TTITLE5=thank you?
TTITLE6=destination moon
TTITLE7=no problem
TTITLE8=tunnel
TTITLE9=milano calibro 9
TTITLE10=afrolicious
TTITLE11=ink
TTITLE12=pure and easy
EXTD=YEAR: 2009
EXTT0=
EXTT1=
EXTT2=
EXTT3=
EXTT4=
EXTT5=
EXTT6=
EXTT7=
EXTT8=
EXTT9=
EXTT10=
EXTT11=
EXTT12=
PLAYORDER=
